<mxfile host="app.diagrams.net" modified="2024-03-04T06:28:54.883Z" agent="Mozilla/5.0 (Windows NT 10.0; Win64; x64) AppleWebKit/537.36 (KHTML, like Gecko) Chrome/122.0.0.0 Safari/537.36" etag="ZqN1wfo5MIJTqLgiCXYW" version="24.0.1" type="device">
  <diagram name="Page-1" id="fY6mABfYcO_denqcblla">
    <mxGraphModel dx="2441" dy="2459" grid="1" gridSize="10" guides="1" tooltips="1" connect="1" arrows="1" fold="1" page="1" pageScale="1" pageWidth="850" pageHeight="1100" math="0" shadow="0">
      <root>
        <mxCell id="0" />
        <mxCell id="1" parent="0" />
        <mxCell id="xwD3dEw4EKFnF7i4BE73-2" value="&lt;font color=&quot;#ffffff&quot;&gt;Starship&lt;/font&gt;" style="rounded=0;whiteSpace=wrap;html=1;strokeColor=#FFFFFF;fillColor=#050505;" parent="1" vertex="1">
          <mxGeometry x="70" y="120" width="120" height="60" as="geometry" />
        </mxCell>
        <mxCell id="xwD3dEw4EKFnF7i4BE73-6" value="&lt;font color=&quot;#ffffff&quot;&gt;Pilots&lt;/font&gt;" style="rounded=0;whiteSpace=wrap;html=1;strokeColor=#FFFFFF;fillColor=#050505;" parent="1" vertex="1">
          <mxGeometry x="905" y="120" width="120" height="60" as="geometry" />
        </mxCell>
        <mxCell id="xwD3dEw4EKFnF7i4BE73-7" value="&lt;font color=&quot;#ffffff&quot;&gt;Passenger&lt;/font&gt;" style="rounded=0;whiteSpace=wrap;html=1;strokeColor=#FFFFFF;fillColor=#050505;" parent="1" vertex="1">
          <mxGeometry x="-50" y="350" width="120" height="60" as="geometry" />
        </mxCell>
        <mxCell id="xwD3dEw4EKFnF7i4BE73-71" style="edgeStyle=orthogonalEdgeStyle;rounded=0;orthogonalLoop=1;jettySize=auto;html=1;strokeColor=default;align=center;verticalAlign=middle;fontFamily=Helvetica;fontSize=12;fontColor=default;labelBackgroundColor=default;startArrow=none;startFill=0;endArrow=none;endFill=0;entryX=0.5;entryY=1;entryDx=0;entryDy=0;" parent="1" source="xwD3dEw4EKFnF7i4BE73-8" target="_8YY1q-5WaHhXl3wNHEv-16" edge="1">
          <mxGeometry relative="1" as="geometry">
            <mxPoint x="1190" y="480" as="targetPoint" />
          </mxGeometry>
        </mxCell>
        <mxCell id="xwD3dEw4EKFnF7i4BE73-8" value="&lt;font color=&quot;#ffffff&quot;&gt;Planet&lt;/font&gt;" style="rounded=0;whiteSpace=wrap;html=1;strokeColor=#FFFFFF;fillColor=#050505;" parent="1" vertex="1">
          <mxGeometry x="905" y="470" width="120" height="60" as="geometry" />
        </mxCell>
        <mxCell id="xwD3dEw4EKFnF7i4BE73-9" value="&lt;font color=&quot;#ffffff&quot;&gt;&lt;span style=&quot;caret-color: rgb(255, 255, 255);&quot;&gt;Trip&lt;/span&gt;&lt;/font&gt;" style="rounded=0;whiteSpace=wrap;html=1;strokeColor=#FFFFFF;fillColor=#050505;" parent="1" vertex="1">
          <mxGeometry x="420" y="335" width="120" height="60" as="geometry" />
        </mxCell>
        <mxCell id="xwD3dEw4EKFnF7i4BE73-21" style="edgeStyle=orthogonalEdgeStyle;rounded=0;orthogonalLoop=1;jettySize=auto;html=1;strokeColor=default;align=center;verticalAlign=middle;fontFamily=Helvetica;fontSize=12;fontColor=default;labelBackgroundColor=default;startArrow=none;startFill=0;endArrow=none;endFill=0;exitX=0.5;exitY=1;exitDx=0;exitDy=0;entryX=0;entryY=0;entryDx=0;entryDy=0;" parent="1" source="xwD3dEw4EKFnF7i4BE73-14" target="_8YY1q-5WaHhXl3wNHEv-3" edge="1">
          <mxGeometry relative="1" as="geometry">
            <mxPoint x="60" y="-30" as="sourcePoint" />
            <mxPoint x="90" y="45" as="targetPoint" />
          </mxGeometry>
        </mxCell>
        <mxCell id="xwD3dEw4EKFnF7i4BE73-14" value="n&lt;font color=&quot;#ffffff&quot;&gt;Name&lt;/font&gt;" style="ellipse;whiteSpace=wrap;html=1;rounded=0;strokeColor=#FFFFFF;align=center;verticalAlign=middle;fontFamily=Helvetica;fontSize=12;fontColor=default;fillColor=#050505;" parent="1" vertex="1">
          <mxGeometry x="-10" y="-100" width="90" height="50" as="geometry" />
        </mxCell>
        <mxCell id="xwD3dEw4EKFnF7i4BE73-20" style="edgeStyle=orthogonalEdgeStyle;rounded=0;orthogonalLoop=1;jettySize=auto;html=1;exitX=0.5;exitY=1;exitDx=0;exitDy=0;entryX=1;entryY=0;entryDx=0;entryDy=0;fontFamily=Helvetica;fontSize=12;fontColor=default;startArrow=none;startFill=0;endArrow=none;endFill=0;" parent="1" source="xwD3dEw4EKFnF7i4BE73-15" target="_8YY1q-5WaHhXl3wNHEv-3" edge="1">
          <mxGeometry relative="1" as="geometry">
            <mxPoint x="90" y="-10" as="targetPoint" />
          </mxGeometry>
        </mxCell>
        <mxCell id="xwD3dEw4EKFnF7i4BE73-15" value="&lt;font color=&quot;#ffffff&quot;&gt;Serial_Number&lt;/font&gt;" style="ellipse;whiteSpace=wrap;html=1;rounded=0;strokeColor=#FFFFFF;align=center;verticalAlign=middle;fontFamily=Helvetica;fontSize=12;fontColor=default;fillColor=#050505;" parent="1" vertex="1">
          <mxGeometry x="180" y="-100" width="90" height="50" as="geometry" />
        </mxCell>
        <mxCell id="xwD3dEw4EKFnF7i4BE73-22" style="edgeStyle=orthogonalEdgeStyle;rounded=0;orthogonalLoop=1;jettySize=auto;html=1;entryX=0.5;entryY=0;entryDx=0;entryDy=0;strokeColor=default;align=center;verticalAlign=middle;fontFamily=Helvetica;fontSize=12;fontColor=default;labelBackgroundColor=default;startArrow=none;startFill=0;endArrow=none;endFill=0;exitX=0.5;exitY=1;exitDx=0;exitDy=0;" parent="1" source="_8YY1q-5WaHhXl3wNHEv-3" target="xwD3dEw4EKFnF7i4BE73-2" edge="1">
          <mxGeometry relative="1" as="geometry">
            <mxPoint x="90" y="50" as="sourcePoint" />
          </mxGeometry>
        </mxCell>
        <mxCell id="xwD3dEw4EKFnF7i4BE73-23" value="&lt;font color=&quot;#ffffff&quot;&gt;Min _Crew&lt;/font&gt;" style="ellipse;whiteSpace=wrap;html=1;rounded=0;strokeColor=#FFFFFF;align=center;verticalAlign=middle;fontFamily=Helvetica;fontSize=12;fontColor=default;fillColor=#050505;" parent="1" vertex="1">
          <mxGeometry x="-120" y="50" width="90" height="50" as="geometry" />
        </mxCell>
        <mxCell id="xwD3dEw4EKFnF7i4BE73-25" value="&lt;font color=&quot;#ffffff&quot;&gt;Max_Pass_Cap&lt;/font&gt;" style="ellipse;whiteSpace=wrap;html=1;rounded=0;strokeColor=#FFFFFF;align=center;verticalAlign=middle;fontFamily=Helvetica;fontSize=12;fontColor=default;fillColor=#050505;" parent="1" vertex="1">
          <mxGeometry x="-130" y="140" width="110" height="50" as="geometry" />
        </mxCell>
        <mxCell id="xwD3dEw4EKFnF7i4BE73-29" style="edgeStyle=orthogonalEdgeStyle;rounded=0;orthogonalLoop=1;jettySize=auto;html=1;entryX=1;entryY=0.25;entryDx=0;entryDy=0;strokeColor=default;align=center;verticalAlign=middle;fontFamily=Helvetica;fontSize=12;fontColor=default;labelBackgroundColor=default;startArrow=none;startFill=0;endArrow=none;endFill=0;" parent="1" source="xwD3dEw4EKFnF7i4BE73-28" target="xwD3dEw4EKFnF7i4BE73-2" edge="1">
          <mxGeometry relative="1" as="geometry" />
        </mxCell>
        <mxCell id="xwD3dEw4EKFnF7i4BE73-28" value="&lt;font color=&quot;#ffffff&quot;&gt;Last_Service_Date&lt;/font&gt;" style="ellipse;whiteSpace=wrap;html=1;rounded=0;strokeColor=#FFFFFF;align=center;verticalAlign=middle;fontFamily=Helvetica;fontSize=12;fontColor=default;fillColor=#050505;" parent="1" vertex="1">
          <mxGeometry x="275" y="50" width="120" height="50" as="geometry" />
        </mxCell>
        <mxCell id="xwD3dEw4EKFnF7i4BE73-30" value="&lt;font color=&quot;#ffffff&quot;&gt;Next_Service_Date&lt;/font&gt;" style="ellipse;whiteSpace=wrap;html=1;rounded=0;strokeColor=#FFFFFF;align=center;verticalAlign=middle;fontFamily=Helvetica;fontSize=12;fontColor=default;fillColor=#050505;" parent="1" vertex="1">
          <mxGeometry x="275" y="140" width="110" height="50" as="geometry" />
        </mxCell>
        <mxCell id="xwD3dEw4EKFnF7i4BE73-41" style="edgeStyle=orthogonalEdgeStyle;rounded=0;orthogonalLoop=1;jettySize=auto;html=1;entryX=1;entryY=0.5;entryDx=0;entryDy=0;strokeColor=default;align=center;verticalAlign=middle;fontFamily=Helvetica;fontSize=12;fontColor=default;labelBackgroundColor=default;startArrow=none;startFill=0;endArrow=none;endFill=0;" parent="1" source="xwD3dEw4EKFnF7i4BE73-40" target="xwD3dEw4EKFnF7i4BE73-6" edge="1">
          <mxGeometry relative="1" as="geometry" />
        </mxCell>
        <mxCell id="xwD3dEw4EKFnF7i4BE73-40" value="&lt;font color=&quot;#ffffff&quot;&gt;&lt;span style=&quot;caret-color: rgb(255, 255, 255);&quot;&gt;Years_of_Service&lt;/span&gt;&lt;/font&gt;" style="ellipse;whiteSpace=wrap;html=1;rounded=0;strokeColor=#FFFFFF;align=center;verticalAlign=middle;fontFamily=Helvetica;fontSize=12;fontColor=default;fillColor=#050505;" parent="1" vertex="1">
          <mxGeometry x="1095" y="125" width="120" height="50" as="geometry" />
        </mxCell>
        <mxCell id="xwD3dEw4EKFnF7i4BE73-43" value="&lt;font color=&quot;#ffffff&quot;&gt;&lt;span style=&quot;caret-color: rgb(255, 255, 255);&quot;&gt;Flight_Count&lt;/span&gt;&lt;/font&gt;" style="ellipse;whiteSpace=wrap;html=1;rounded=0;strokeColor=#FFFFFF;align=center;verticalAlign=middle;fontFamily=Helvetica;fontSize=12;fontColor=default;fillColor=#050505;" parent="1" vertex="1">
          <mxGeometry x="1020" y="10" width="90" height="50" as="geometry" />
        </mxCell>
        <mxCell id="xwD3dEw4EKFnF7i4BE73-45" style="edgeStyle=orthogonalEdgeStyle;rounded=0;orthogonalLoop=1;jettySize=auto;html=1;strokeColor=default;align=center;verticalAlign=middle;fontFamily=Helvetica;fontSize=12;fontColor=default;labelBackgroundColor=default;startArrow=none;startFill=0;endArrow=none;endFill=0;entryX=0.5;entryY=0;entryDx=0;entryDy=0;" parent="1" source="xwD3dEw4EKFnF7i4BE73-46" target="_8YY1q-5WaHhXl3wNHEv-9" edge="1">
          <mxGeometry relative="1" as="geometry">
            <mxPoint x="900" y="-10" as="targetPoint" />
          </mxGeometry>
        </mxCell>
        <mxCell id="xwD3dEw4EKFnF7i4BE73-46" value="n&lt;font color=&quot;#ffffff&quot;&gt;Name&lt;/font&gt;" style="ellipse;whiteSpace=wrap;html=1;rounded=0;strokeColor=#FFFFFF;align=center;verticalAlign=middle;fontFamily=Helvetica;fontSize=12;fontColor=default;fillColor=#050505;" parent="1" vertex="1">
          <mxGeometry x="760" y="-100" width="90" height="50" as="geometry" />
        </mxCell>
        <mxCell id="xwD3dEw4EKFnF7i4BE73-47" style="edgeStyle=orthogonalEdgeStyle;rounded=0;orthogonalLoop=1;jettySize=auto;html=1;exitX=0.5;exitY=1;exitDx=0;exitDy=0;entryX=0.5;entryY=0;entryDx=0;entryDy=0;fontFamily=Helvetica;fontSize=12;fontColor=default;startArrow=none;startFill=0;endArrow=none;endFill=0;" parent="1" source="xwD3dEw4EKFnF7i4BE73-48" target="_8YY1q-5WaHhXl3wNHEv-9" edge="1">
          <mxGeometry relative="1" as="geometry">
            <mxPoint x="900" y="-10" as="targetPoint" />
          </mxGeometry>
        </mxCell>
        <mxCell id="xwD3dEw4EKFnF7i4BE73-48" value="&lt;font color=&quot;#ffffff&quot;&gt;DOB&lt;/font&gt;" style="ellipse;whiteSpace=wrap;html=1;rounded=0;strokeColor=#FFFFFF;align=center;verticalAlign=middle;fontFamily=Helvetica;fontSize=12;fontColor=default;fillColor=#050505;" parent="1" vertex="1">
          <mxGeometry x="915" y="-100" width="90" height="50" as="geometry" />
        </mxCell>
        <mxCell id="xwD3dEw4EKFnF7i4BE73-49" style="edgeStyle=orthogonalEdgeStyle;rounded=0;orthogonalLoop=1;jettySize=auto;html=1;entryX=0.5;entryY=0;entryDx=0;entryDy=0;strokeColor=default;align=center;verticalAlign=middle;fontFamily=Helvetica;fontSize=12;fontColor=default;labelBackgroundColor=default;startArrow=none;startFill=0;endArrow=none;endFill=0;exitX=0.5;exitY=1;exitDx=0;exitDy=0;" parent="1" source="_8YY1q-5WaHhXl3wNHEv-9" edge="1" target="xwD3dEw4EKFnF7i4BE73-6">
          <mxGeometry relative="1" as="geometry">
            <mxPoint x="940" y="120" as="targetPoint" />
            <mxPoint x="900" y="50" as="sourcePoint" />
          </mxGeometry>
        </mxCell>
        <mxCell id="xwD3dEw4EKFnF7i4BE73-55" style="edgeStyle=orthogonalEdgeStyle;rounded=0;orthogonalLoop=1;jettySize=auto;html=1;strokeColor=default;align=center;verticalAlign=middle;fontFamily=Helvetica;fontSize=12;fontColor=default;labelBackgroundColor=default;startArrow=none;startFill=0;endArrow=none;endFill=0;entryX=0.5;entryY=0;entryDx=0;entryDy=0;" parent="1" source="xwD3dEw4EKFnF7i4BE73-56" target="_8YY1q-5WaHhXl3wNHEv-4" edge="1">
          <mxGeometry relative="1" as="geometry">
            <mxPoint x="-160" y="410" as="targetPoint" />
          </mxGeometry>
        </mxCell>
        <mxCell id="xwD3dEw4EKFnF7i4BE73-56" value="n&lt;font color=&quot;#ffffff&quot;&gt;Name&lt;/font&gt;" style="ellipse;whiteSpace=wrap;html=1;rounded=0;strokeColor=#FFFFFF;align=center;verticalAlign=middle;fontFamily=Helvetica;fontSize=12;fontColor=default;fillColor=#050505;" parent="1" vertex="1">
          <mxGeometry x="-350" y="270" width="90" height="50" as="geometry" />
        </mxCell>
        <mxCell id="xwD3dEw4EKFnF7i4BE73-57" style="edgeStyle=orthogonalEdgeStyle;rounded=0;orthogonalLoop=1;jettySize=auto;html=1;exitX=1;exitY=0.5;exitDx=0;exitDy=0;entryX=0.5;entryY=0;entryDx=0;entryDy=0;fontFamily=Helvetica;fontSize=12;fontColor=default;startArrow=none;startFill=0;endArrow=none;endFill=0;" parent="1" source="xwD3dEw4EKFnF7i4BE73-58" target="_8YY1q-5WaHhXl3wNHEv-4" edge="1">
          <mxGeometry relative="1" as="geometry">
            <mxPoint x="-160" y="410" as="targetPoint" />
          </mxGeometry>
        </mxCell>
        <mxCell id="xwD3dEw4EKFnF7i4BE73-58" value="&lt;font color=&quot;#ffffff&quot;&gt;DOB&lt;/font&gt;" style="ellipse;whiteSpace=wrap;html=1;rounded=0;strokeColor=#FFFFFF;align=center;verticalAlign=middle;fontFamily=Helvetica;fontSize=12;fontColor=default;fillColor=#050505;" parent="1" vertex="1">
          <mxGeometry x="-350" y="210" width="90" height="50" as="geometry" />
        </mxCell>
        <mxCell id="xwD3dEw4EKFnF7i4BE73-59" style="edgeStyle=orthogonalEdgeStyle;rounded=0;orthogonalLoop=1;jettySize=auto;html=1;strokeColor=default;align=center;verticalAlign=middle;fontFamily=Helvetica;fontSize=12;fontColor=default;labelBackgroundColor=default;startArrow=none;startFill=0;endArrow=none;endFill=0;exitX=0.5;exitY=1;exitDx=0;exitDy=0;entryX=0.5;entryY=0;entryDx=0;entryDy=0;" parent="1" source="_8YY1q-5WaHhXl3wNHEv-4" target="xwD3dEw4EKFnF7i4BE73-7" edge="1">
          <mxGeometry relative="1" as="geometry">
            <mxPoint x="20" y="420" as="targetPoint" />
            <Array as="points">
              <mxPoint x="10" y="420" />
              <mxPoint x="10" y="420" />
            </Array>
            <mxPoint x="-150" y="460" as="sourcePoint" />
          </mxGeometry>
        </mxCell>
        <mxCell id="xwD3dEw4EKFnF7i4BE73-65" style="edgeStyle=orthogonalEdgeStyle;rounded=0;orthogonalLoop=1;jettySize=auto;html=1;strokeColor=default;align=center;verticalAlign=middle;fontFamily=Helvetica;fontSize=12;fontColor=default;labelBackgroundColor=default;startArrow=none;startFill=0;endArrow=none;endFill=0;entryX=0.5;entryY=0;entryDx=0;entryDy=0;" parent="1" source="xwD3dEw4EKFnF7i4BE73-66" target="_8YY1q-5WaHhXl3wNHEv-16" edge="1">
          <mxGeometry relative="1" as="geometry">
            <mxPoint x="1270" y="430" as="targetPoint" />
          </mxGeometry>
        </mxCell>
        <mxCell id="xwD3dEw4EKFnF7i4BE73-66" value="Planet Name" style="ellipse;whiteSpace=wrap;html=1;rounded=0;strokeColor=#FFFFFF;align=center;verticalAlign=middle;fontFamily=Helvetica;fontSize=12;fontColor=#FFFFFF;fillColor=#050505;" parent="1" vertex="1">
          <mxGeometry x="1080" y="310" width="90" height="50" as="geometry" />
        </mxCell>
        <mxCell id="xwD3dEw4EKFnF7i4BE73-67" style="edgeStyle=orthogonalEdgeStyle;rounded=0;orthogonalLoop=1;jettySize=auto;html=1;exitX=0.5;exitY=1;exitDx=0;exitDy=0;entryX=0.5;entryY=0;entryDx=0;entryDy=0;fontFamily=Helvetica;fontSize=12;fontColor=default;startArrow=none;startFill=0;endArrow=none;endFill=0;" parent="1" source="xwD3dEw4EKFnF7i4BE73-68" target="_8YY1q-5WaHhXl3wNHEv-16" edge="1">
          <mxGeometry relative="1" as="geometry">
            <mxPoint x="1190" y="420" as="targetPoint" />
          </mxGeometry>
        </mxCell>
        <mxCell id="xwD3dEw4EKFnF7i4BE73-68" value="&lt;font color=&quot;#ffffff&quot;&gt;Starsystem Name&lt;/font&gt;" style="ellipse;whiteSpace=wrap;html=1;rounded=0;strokeColor=#FFFFFF;align=center;verticalAlign=middle;fontFamily=Helvetica;fontSize=12;fontColor=default;fillColor=#050505;" parent="1" vertex="1">
          <mxGeometry x="1215" y="310" width="90" height="50" as="geometry" />
        </mxCell>
        <mxCell id="xwD3dEw4EKFnF7i4BE73-88" style="edgeStyle=orthogonalEdgeStyle;rounded=0;orthogonalLoop=1;jettySize=auto;html=1;entryX=1;entryY=0.5;entryDx=0;entryDy=0;strokeColor=default;align=center;verticalAlign=middle;fontFamily=Helvetica;fontSize=12;fontColor=default;labelBackgroundColor=default;startArrow=none;startFill=0;endArrow=none;endFill=0;" parent="1" source="xwD3dEw4EKFnF7i4BE73-72" target="xwD3dEw4EKFnF7i4BE73-8" edge="1">
          <mxGeometry relative="1" as="geometry" />
        </mxCell>
        <mxCell id="xwD3dEw4EKFnF7i4BE73-72" value="&lt;font color=&quot;#ffffff&quot;&gt;Climate_Type&lt;/font&gt;" style="ellipse;whiteSpace=wrap;html=1;rounded=0;strokeColor=#FFFFFF;align=center;verticalAlign=middle;fontFamily=Helvetica;fontSize=12;fontColor=default;fillColor=#050505;" parent="1" vertex="1">
          <mxGeometry x="1240" y="550" width="90" height="50" as="geometry" />
        </mxCell>
        <mxCell id="_8YY1q-5WaHhXl3wNHEv-3" value="&lt;u&gt;Starship ID&lt;/u&gt;" style="ellipse;whiteSpace=wrap;html=1;fillColor=#000000;fontColor=#FFFFFF;" vertex="1" parent="1">
          <mxGeometry x="70" y="15" width="120" height="40" as="geometry" />
        </mxCell>
        <mxCell id="_8YY1q-5WaHhXl3wNHEv-4" value="&lt;u&gt;Passenger ID&lt;/u&gt;" style="ellipse;whiteSpace=wrap;html=1;fillColor=#000000;fontColor=#FFFFFF;" vertex="1" parent="1">
          <mxGeometry x="-50" y="280" width="120" height="40" as="geometry" />
        </mxCell>
        <mxCell id="_8YY1q-5WaHhXl3wNHEv-6" value="DEPENDS_ON" style="rhombus;whiteSpace=wrap;html=1;fontColor=#FFFFFF;fillColor=#000000;" vertex="1" parent="1">
          <mxGeometry x="-290" y="460" width="120" height="80" as="geometry" />
        </mxCell>
        <mxCell id="_8YY1q-5WaHhXl3wNHEv-7" value="" style="endArrow=none;html=1;rounded=0;edgeStyle=orthogonalEdgeStyle;exitX=0.5;exitY=0;exitDx=0;exitDy=0;entryX=0;entryY=0.5;entryDx=0;entryDy=0;" edge="1" parent="1" source="_8YY1q-5WaHhXl3wNHEv-6" target="xwD3dEw4EKFnF7i4BE73-7">
          <mxGeometry width="50" height="50" relative="1" as="geometry">
            <mxPoint x="130" y="630" as="sourcePoint" />
            <mxPoint x="110" y="510" as="targetPoint" />
            <Array as="points">
              <mxPoint x="-230" y="380" />
            </Array>
          </mxGeometry>
        </mxCell>
        <mxCell id="_8YY1q-5WaHhXl3wNHEv-8" value="" style="endArrow=none;html=1;rounded=0;edgeStyle=orthogonalEdgeStyle;exitX=0.5;exitY=1;exitDx=0;exitDy=0;" edge="1" parent="1" source="_8YY1q-5WaHhXl3wNHEv-6">
          <mxGeometry width="50" height="50" relative="1" as="geometry">
            <mxPoint x="130" y="630" as="sourcePoint" />
            <mxPoint x="10" y="420" as="targetPoint" />
            <Array as="points">
              <mxPoint x="-230" y="600" />
              <mxPoint x="10" y="600" />
            </Array>
          </mxGeometry>
        </mxCell>
        <mxCell id="_8YY1q-5WaHhXl3wNHEv-9" value="&lt;u&gt;Pilot ID&lt;/u&gt;" style="ellipse;whiteSpace=wrap;html=1;fontColor=#FFFFFF;fillColor=#000000;" vertex="1" parent="1">
          <mxGeometry x="850" y="20" width="120" height="40" as="geometry" />
        </mxCell>
        <mxCell id="_8YY1q-5WaHhXl3wNHEv-11" value="" style="endArrow=none;html=1;rounded=0;entryX=0.5;entryY=1;entryDx=0;entryDy=0;exitX=0.5;exitY=0;exitDx=0;exitDy=0;edgeStyle=orthogonalEdgeStyle;" edge="1" parent="1" source="xwD3dEw4EKFnF7i4BE73-6" target="xwD3dEw4EKFnF7i4BE73-43">
          <mxGeometry width="50" height="50" relative="1" as="geometry">
            <mxPoint x="710" y="380" as="sourcePoint" />
            <mxPoint x="760" y="330" as="targetPoint" />
          </mxGeometry>
        </mxCell>
        <mxCell id="_8YY1q-5WaHhXl3wNHEv-12" value="&lt;font color=&quot;#ffffff&quot;&gt;BORN_ON&lt;/font&gt;" style="rhombus;whiteSpace=wrap;html=1;fillColor=#000000;" vertex="1" parent="1">
          <mxGeometry x="925" y="280" width="80" height="80" as="geometry" />
        </mxCell>
        <mxCell id="_8YY1q-5WaHhXl3wNHEv-13" value="" style="endArrow=none;html=1;rounded=0;entryX=0.5;entryY=1;entryDx=0;entryDy=0;exitX=0.5;exitY=0;exitDx=0;exitDy=0;edgeStyle=orthogonalEdgeStyle;" edge="1" parent="1" source="_8YY1q-5WaHhXl3wNHEv-12" target="xwD3dEw4EKFnF7i4BE73-6">
          <mxGeometry width="50" height="50" relative="1" as="geometry">
            <mxPoint x="860" y="380" as="sourcePoint" />
            <mxPoint x="910" y="330" as="targetPoint" />
          </mxGeometry>
        </mxCell>
        <mxCell id="_8YY1q-5WaHhXl3wNHEv-15" value="" style="endArrow=none;html=1;rounded=0;entryX=0.5;entryY=1;entryDx=0;entryDy=0;exitX=0.5;exitY=0;exitDx=0;exitDy=0;edgeStyle=orthogonalEdgeStyle;" edge="1" parent="1" source="xwD3dEw4EKFnF7i4BE73-8" target="_8YY1q-5WaHhXl3wNHEv-12">
          <mxGeometry width="50" height="50" relative="1" as="geometry">
            <mxPoint x="860" y="380" as="sourcePoint" />
            <mxPoint x="910" y="330" as="targetPoint" />
          </mxGeometry>
        </mxCell>
        <mxCell id="_8YY1q-5WaHhXl3wNHEv-16" value="Planet ID" style="ellipse;whiteSpace=wrap;html=1;fillColor=#000000;fontColor=#FFFFFF;fontStyle=4" vertex="1" parent="1">
          <mxGeometry x="1140" y="430" width="120" height="40" as="geometry" />
        </mxCell>
        <mxCell id="_8YY1q-5WaHhXl3wNHEv-20" value="STARTS_FROM" style="rhombus;whiteSpace=wrap;html=1;fillColor=#000000;fontColor=#FFFFFF;" vertex="1" parent="1">
          <mxGeometry x="640" y="325" width="130" height="80" as="geometry" />
        </mxCell>
        <mxCell id="_8YY1q-5WaHhXl3wNHEv-21" value="ENDS_AT" style="rhombus;whiteSpace=wrap;html=1;fillColor=#000000;fontColor=#FFFFFF;" vertex="1" parent="1">
          <mxGeometry x="640" y="535" width="130" height="80" as="geometry" />
        </mxCell>
        <mxCell id="_8YY1q-5WaHhXl3wNHEv-22" value="" style="endArrow=none;html=1;rounded=0;entryX=0;entryY=0.5;entryDx=0;entryDy=0;exitX=1;exitY=0.5;exitDx=0;exitDy=0;edgeStyle=orthogonalEdgeStyle;" edge="1" parent="1" source="xwD3dEw4EKFnF7i4BE73-9" target="_8YY1q-5WaHhXl3wNHEv-20">
          <mxGeometry width="50" height="50" relative="1" as="geometry">
            <mxPoint x="270" y="290" as="sourcePoint" />
            <mxPoint x="320" y="240" as="targetPoint" />
          </mxGeometry>
        </mxCell>
        <mxCell id="_8YY1q-5WaHhXl3wNHEv-23" value="" style="endArrow=none;html=1;rounded=0;entryX=0;entryY=0.5;entryDx=0;entryDy=0;exitX=1;exitY=0.5;exitDx=0;exitDy=0;edgeStyle=orthogonalEdgeStyle;" edge="1" parent="1" source="_8YY1q-5WaHhXl3wNHEv-20" target="xwD3dEw4EKFnF7i4BE73-8">
          <mxGeometry width="50" height="50" relative="1" as="geometry">
            <mxPoint x="460" y="290" as="sourcePoint" />
            <mxPoint x="510" y="240" as="targetPoint" />
          </mxGeometry>
        </mxCell>
        <mxCell id="_8YY1q-5WaHhXl3wNHEv-24" value="" style="endArrow=none;html=1;rounded=0;entryX=0;entryY=0.5;entryDx=0;entryDy=0;exitX=1;exitY=0.5;exitDx=0;exitDy=0;edgeStyle=orthogonalEdgeStyle;" edge="1" parent="1" source="_8YY1q-5WaHhXl3wNHEv-21" target="xwD3dEw4EKFnF7i4BE73-8">
          <mxGeometry width="50" height="50" relative="1" as="geometry">
            <mxPoint x="460" y="290" as="sourcePoint" />
            <mxPoint x="510" y="240" as="targetPoint" />
          </mxGeometry>
        </mxCell>
        <mxCell id="_8YY1q-5WaHhXl3wNHEv-25" value="" style="endArrow=none;html=1;rounded=0;entryX=1;entryY=0.75;entryDx=0;entryDy=0;exitX=0;exitY=0.5;exitDx=0;exitDy=0;edgeStyle=orthogonalEdgeStyle;" edge="1" parent="1" source="_8YY1q-5WaHhXl3wNHEv-21" target="xwD3dEw4EKFnF7i4BE73-9">
          <mxGeometry width="50" height="50" relative="1" as="geometry">
            <mxPoint x="270" y="290" as="sourcePoint" />
            <mxPoint x="320" y="240" as="targetPoint" />
          </mxGeometry>
        </mxCell>
        <mxCell id="_8YY1q-5WaHhXl3wNHEv-26" value="" style="endArrow=none;html=1;rounded=0;entryX=0.5;entryY=0;entryDx=0;entryDy=0;exitX=0.5;exitY=1;exitDx=0;exitDy=0;edgeStyle=orthogonalEdgeStyle;" edge="1" parent="1" source="_8YY1q-5WaHhXl3wNHEv-27" target="xwD3dEw4EKFnF7i4BE73-9">
          <mxGeometry width="50" height="50" relative="1" as="geometry">
            <mxPoint x="460" y="160" as="sourcePoint" />
            <mxPoint x="590" y="240" as="targetPoint" />
          </mxGeometry>
        </mxCell>
        <mxCell id="_8YY1q-5WaHhXl3wNHEv-27" value="&lt;font color=&quot;#ffffff&quot;&gt;departure_date&lt;/font&gt;" style="ellipse;whiteSpace=wrap;html=1;rounded=0;strokeColor=#FFFFFF;align=center;verticalAlign=middle;fontFamily=Helvetica;fontSize=12;fontColor=default;fillColor=#050505;" vertex="1" parent="1">
          <mxGeometry x="435" y="220" width="90" height="50" as="geometry" />
        </mxCell>
        <mxCell id="_8YY1q-5WaHhXl3wNHEv-29" value="PARTICIPATES_ON" style="rhombus;whiteSpace=wrap;html=1;fillColor=#000000;fontColor=#FFFFFF;" vertex="1" parent="1">
          <mxGeometry x="180" y="340" width="130" height="80" as="geometry" />
        </mxCell>
        <mxCell id="_8YY1q-5WaHhXl3wNHEv-30" value="" style="endArrow=none;html=1;rounded=0;entryX=0;entryY=0.75;entryDx=0;entryDy=0;exitX=1;exitY=0.5;exitDx=0;exitDy=0;edgeStyle=orthogonalEdgeStyle;" edge="1" parent="1" source="_8YY1q-5WaHhXl3wNHEv-29" target="xwD3dEw4EKFnF7i4BE73-9">
          <mxGeometry width="50" height="50" relative="1" as="geometry">
            <mxPoint x="270" y="270" as="sourcePoint" />
            <mxPoint x="320" y="220" as="targetPoint" />
          </mxGeometry>
        </mxCell>
        <mxCell id="_8YY1q-5WaHhXl3wNHEv-31" value="" style="endArrow=none;html=1;rounded=0;exitX=0;exitY=0.5;exitDx=0;exitDy=0;entryX=1;entryY=0.5;entryDx=0;entryDy=0;edgeStyle=orthogonalEdgeStyle;" edge="1" parent="1" source="_8YY1q-5WaHhXl3wNHEv-29" target="xwD3dEw4EKFnF7i4BE73-7">
          <mxGeometry width="50" height="50" relative="1" as="geometry">
            <mxPoint x="270" y="270" as="sourcePoint" />
            <mxPoint x="320" y="220" as="targetPoint" />
          </mxGeometry>
        </mxCell>
        <mxCell id="_8YY1q-5WaHhXl3wNHEv-33" value="PILOTS" style="rhombus;whiteSpace=wrap;html=1;fillColor=#000000;fontColor=#FFFFFF;" vertex="1" parent="1">
          <mxGeometry x="640" y="110" width="130" height="80" as="geometry" />
        </mxCell>
        <mxCell id="_8YY1q-5WaHhXl3wNHEv-34" value="" style="endArrow=none;html=1;rounded=0;entryX=0;entryY=0.5;entryDx=0;entryDy=0;exitX=1;exitY=0.25;exitDx=0;exitDy=0;edgeStyle=orthogonalEdgeStyle;" edge="1" parent="1" source="xwD3dEw4EKFnF7i4BE73-9" target="_8YY1q-5WaHhXl3wNHEv-33">
          <mxGeometry width="50" height="50" relative="1" as="geometry">
            <mxPoint x="570" y="270" as="sourcePoint" />
            <mxPoint x="620" y="220" as="targetPoint" />
          </mxGeometry>
        </mxCell>
        <mxCell id="_8YY1q-5WaHhXl3wNHEv-35" value="" style="endArrow=none;html=1;rounded=0;entryX=0;entryY=0.5;entryDx=0;entryDy=0;exitX=1;exitY=0.5;exitDx=0;exitDy=0;edgeStyle=orthogonalEdgeStyle;" edge="1" parent="1" source="_8YY1q-5WaHhXl3wNHEv-33" target="xwD3dEw4EKFnF7i4BE73-6">
          <mxGeometry width="50" height="50" relative="1" as="geometry">
            <mxPoint x="570" y="270" as="sourcePoint" />
            <mxPoint x="620" y="220" as="targetPoint" />
          </mxGeometry>
        </mxCell>
        <mxCell id="_8YY1q-5WaHhXl3wNHEv-37" value="FLIES_DURING" style="rhombus;whiteSpace=wrap;html=1;fillColor=#000000;fontColor=#FFFFFF;" vertex="1" parent="1">
          <mxGeometry x="210" y="220" width="130" height="80" as="geometry" />
        </mxCell>
        <mxCell id="_8YY1q-5WaHhXl3wNHEv-38" value="" style="endArrow=none;html=1;rounded=0;entryX=-0.003;entryY=0.349;entryDx=0;entryDy=0;exitX=1;exitY=0.5;exitDx=0;exitDy=0;edgeStyle=orthogonalEdgeStyle;entryPerimeter=0;" edge="1" parent="1" source="_8YY1q-5WaHhXl3wNHEv-37" target="xwD3dEw4EKFnF7i4BE73-9">
          <mxGeometry width="50" height="50" relative="1" as="geometry">
            <mxPoint x="320" y="270" as="sourcePoint" />
            <mxPoint x="370" y="220" as="targetPoint" />
          </mxGeometry>
        </mxCell>
        <mxCell id="_8YY1q-5WaHhXl3wNHEv-39" value="" style="endArrow=none;html=1;rounded=0;entryX=0.5;entryY=1;entryDx=0;entryDy=0;exitX=0;exitY=0.5;exitDx=0;exitDy=0;edgeStyle=orthogonalEdgeStyle;" edge="1" parent="1" source="_8YY1q-5WaHhXl3wNHEv-37" target="xwD3dEw4EKFnF7i4BE73-2">
          <mxGeometry width="50" height="50" relative="1" as="geometry">
            <mxPoint x="320" y="270" as="sourcePoint" />
            <mxPoint x="370" y="220" as="targetPoint" />
          </mxGeometry>
        </mxCell>
        <mxCell id="_8YY1q-5WaHhXl3wNHEv-40" value="(0,N)" style="text;html=1;align=center;verticalAlign=middle;whiteSpace=wrap;rounded=0;" vertex="1" parent="1">
          <mxGeometry x="160" y="230" width="60" height="30" as="geometry" />
        </mxCell>
        <mxCell id="_8YY1q-5WaHhXl3wNHEv-41" value="(1,1)" style="text;html=1;align=center;verticalAlign=middle;whiteSpace=wrap;rounded=0;" vertex="1" parent="1">
          <mxGeometry x="325" y="230" width="60" height="30" as="geometry" />
        </mxCell>
        <mxCell id="_8YY1q-5WaHhXl3wNHEv-42" value="(0,N)" style="text;html=1;align=center;verticalAlign=middle;whiteSpace=wrap;rounded=0;" vertex="1" parent="1">
          <mxGeometry x="130" y="350" width="60" height="30" as="geometry" />
        </mxCell>
        <mxCell id="_8YY1q-5WaHhXl3wNHEv-43" value="(0,M)" style="text;html=1;align=center;verticalAlign=middle;whiteSpace=wrap;rounded=0;" vertex="1" parent="1">
          <mxGeometry x="300" y="350" width="60" height="30" as="geometry" />
        </mxCell>
        <mxCell id="_8YY1q-5WaHhXl3wNHEv-44" value="(0,1)" style="text;html=1;align=center;verticalAlign=middle;whiteSpace=wrap;rounded=0;" vertex="1" parent="1">
          <mxGeometry x="-240" y="430" width="60" height="30" as="geometry" />
        </mxCell>
        <mxCell id="_8YY1q-5WaHhXl3wNHEv-45" value="(0,N)" style="text;html=1;align=center;verticalAlign=middle;whiteSpace=wrap;rounded=0;" vertex="1" parent="1">
          <mxGeometry x="-240" y="540" width="60" height="30" as="geometry" />
        </mxCell>
        <mxCell id="_8YY1q-5WaHhXl3wNHEv-46" value="(1,1)" style="text;html=1;align=center;verticalAlign=middle;whiteSpace=wrap;rounded=0;" vertex="1" parent="1">
          <mxGeometry x="590" y="550" width="60" height="30" as="geometry" />
        </mxCell>
        <mxCell id="_8YY1q-5WaHhXl3wNHEv-47" value="(0,N)" style="text;html=1;align=center;verticalAlign=middle;whiteSpace=wrap;rounded=0;" vertex="1" parent="1">
          <mxGeometry x="760" y="550" width="60" height="30" as="geometry" />
        </mxCell>
        <mxCell id="_8YY1q-5WaHhXl3wNHEv-48" value="(1,1)" style="text;html=1;align=center;verticalAlign=middle;whiteSpace=wrap;rounded=0;" vertex="1" parent="1">
          <mxGeometry x="590" y="340" width="60" height="30" as="geometry" />
        </mxCell>
        <mxCell id="_8YY1q-5WaHhXl3wNHEv-49" value="(0,N)" style="text;html=1;align=center;verticalAlign=middle;whiteSpace=wrap;rounded=0;" vertex="1" parent="1">
          <mxGeometry x="760" y="335" width="60" height="30" as="geometry" />
        </mxCell>
        <mxCell id="_8YY1q-5WaHhXl3wNHEv-50" value="(1,1)" style="text;html=1;align=center;verticalAlign=middle;whiteSpace=wrap;rounded=0;" vertex="1" parent="1">
          <mxGeometry x="590" y="120" width="60" height="30" as="geometry" />
        </mxCell>
        <mxCell id="_8YY1q-5WaHhXl3wNHEv-51" value="(0,N)" style="text;html=1;align=center;verticalAlign=middle;whiteSpace=wrap;rounded=0;" vertex="1" parent="1">
          <mxGeometry x="760" y="120" width="60" height="30" as="geometry" />
        </mxCell>
        <mxCell id="_8YY1q-5WaHhXl3wNHEv-52" value="(1,1)" style="text;html=1;align=center;verticalAlign=middle;whiteSpace=wrap;rounded=0;" vertex="1" parent="1">
          <mxGeometry x="960" y="250" width="60" height="30" as="geometry" />
        </mxCell>
        <mxCell id="_8YY1q-5WaHhXl3wNHEv-53" value="(0,N)" style="text;html=1;align=center;verticalAlign=middle;whiteSpace=wrap;rounded=0;" vertex="1" parent="1">
          <mxGeometry x="960" y="370" width="60" height="30" as="geometry" />
        </mxCell>
        <mxCell id="_8YY1q-5WaHhXl3wNHEv-54" value="" style="endArrow=none;html=1;rounded=0;exitX=1;exitY=0.5;exitDx=0;exitDy=0;entryX=0;entryY=0.25;entryDx=0;entryDy=0;edgeStyle=orthogonalEdgeStyle;" edge="1" parent="1" source="xwD3dEw4EKFnF7i4BE73-23" target="xwD3dEw4EKFnF7i4BE73-2">
          <mxGeometry width="50" height="50" relative="1" as="geometry">
            <mxPoint x="180" y="200" as="sourcePoint" />
            <mxPoint x="230" y="150" as="targetPoint" />
          </mxGeometry>
        </mxCell>
        <mxCell id="_8YY1q-5WaHhXl3wNHEv-55" value="" style="endArrow=none;html=1;rounded=0;exitX=1;exitY=0.5;exitDx=0;exitDy=0;entryX=0;entryY=0.75;entryDx=0;entryDy=0;edgeStyle=orthogonalEdgeStyle;" edge="1" parent="1" source="xwD3dEw4EKFnF7i4BE73-25" target="xwD3dEw4EKFnF7i4BE73-2">
          <mxGeometry width="50" height="50" relative="1" as="geometry">
            <mxPoint x="180" y="200" as="sourcePoint" />
            <mxPoint x="230" y="150" as="targetPoint" />
          </mxGeometry>
        </mxCell>
        <mxCell id="_8YY1q-5WaHhXl3wNHEv-56" value="" style="endArrow=none;html=1;rounded=0;entryX=0;entryY=0.5;entryDx=0;entryDy=0;exitX=1;exitY=0.75;exitDx=0;exitDy=0;" edge="1" parent="1" source="xwD3dEw4EKFnF7i4BE73-2" target="xwD3dEw4EKFnF7i4BE73-30">
          <mxGeometry width="50" height="50" relative="1" as="geometry">
            <mxPoint x="180" y="200" as="sourcePoint" />
            <mxPoint x="230" y="150" as="targetPoint" />
          </mxGeometry>
        </mxCell>
      </root>
    </mxGraphModel>
  </diagram>
</mxfile>
